<svg viewBox="0 0 24 24" id="campaign" xmlns="http://www.w3.org/2000/svg" class="icon multi-color" fill="#000000"><g id="SVGRepo_bgCarrier" stroke-width="0"></g><g id="SVGRepo_tracerCarrier" stroke-linecap="round" stroke-linejoin="round"></g><g id="SVGRepo_iconCarrier"><title style="stroke-width: 2;">campaign</title><path id="secondary-fill" d="M18,4.28V15.72a1.79,1.79,0,0,1-.07.51L9,14V6l8.93-2.23A1.79,1.79,0,0,1,18,4.28Z" style="fill: #2ca9bc; stroke-width: 2;"></path><path id="tertiary-fill" d="M9,14v6a1,1,0,0,1-1,1H6.82a1,1,0,0,1-1-.8L4.41,13A4,4,0,0,0,7,14Z" style="fill: #b7b7b7; stroke-width: 2;"></path><path id="primary-stroke" d="M21,4.28V15.72a1,1,0,0,1-1.24,1l-1.83-.46L9,14V6l8.93-2.23,1.83-.46A1,1,0,0,1,21,4.28ZM7,6a4,4,0,0,0-4,4,4,4,0,0,0,1.41,3h0A4,4,0,0,0,7,14H9V6Zm0,8a4,4,0,0,1-2.59-.95L5.84,20.2a1,1,0,0,0,1,.8H8a1,1,0,0,0,1-1V14Z" style="fill: none; stroke: #000000; stroke-linecap: round; stroke-linejoin: round; stroke-width: 2;"></path></g></svg>
