<?xml version="1.0" encoding="utf-8"?><!-- Uploaded to: SVG Repo, www.svgrepo.com, Generator: SVG Repo Mixer Tools -->
<svg fill="#000000" width="800px" height="800px" viewBox="0 0 24 24" id="dashboard" data-name="Flat Line" xmlns="http://www.w3.org/2000/svg" class="icon flat-line"><path id="secondary" d="M9,12H4a1,1,0,0,1-1-1V4A1,1,0,0,1,4,3H9a1,1,0,0,1,1,1v7A1,1,0,0,1,9,12Zm12,8V13a1,1,0,0,0-1-1H15a1,1,0,0,0-1,1v7a1,1,0,0,0,1,1h5A1,1,0,0,0,21,20Z" style="fill: rgb(44, 169, 188); stroke-width: 2;"></path><path id="primary" d="M21,7V4a1,1,0,0,0-1-1H15a1,1,0,0,0-1,1V7a1,1,0,0,0,1,1h5A1,1,0,0,0,21,7ZM10,20V17a1,1,0,0,0-1-1H4a1,1,0,0,0-1,1v3a1,1,0,0,0,1,1H9A1,1,0,0,0,10,20ZM9,12H4a1,1,0,0,1-1-1V4A1,1,0,0,1,4,3H9a1,1,0,0,1,1,1v7A1,1,0,0,1,9,12Zm12,8V13a1,1,0,0,0-1-1H15a1,1,0,0,0-1,1v7a1,1,0,0,0,1,1h5A1,1,0,0,0,21,20Z" style="fill: none; stroke: rgb(0, 0, 0); stroke-linecap: round; stroke-linejoin: round; stroke-width: 2;"></path></svg>
