<svg fill="#000000" viewBox="0 0 24 24" id="money-bag-dollar" data-name="Line Color" xmlns="http://www.w3.org/2000/svg" class="icon line-color"><g id="SVGRepo_bgCarrier" stroke-width="0"></g><g id="SVGRepo_tracerCarrier" stroke-linecap="round" stroke-linejoin="round"></g><g id="SVGRepo_iconCarrier"><path id="secondary" d="M14,10H11.5A1.5,1.5,0,0,0,10,11.5h0A1.5,1.5,0,0,0,11.5,13h1A1.5,1.5,0,0,1,14,14.5h0A1.5,1.5,0,0,1,12.5,16H10" style="fill: none; stroke: #2ca9bc; stroke-linecap: round; stroke-linejoin: round; stroke-width: 2;"></path><path id="secondary-2" data-name="secondary" d="M12,10V9m0,8V16" style="fill: none; stroke: #2ca9bc; stroke-linecap: round; stroke-linejoin: round; stroke-width: 2;"></path><path id="primary" d="M10.72,5,10,3h4l-.72,2ZM12,21a14.43,14.43,0,0,0,4.19-.57A4,4,0,0,0,19,16.61h0a11.29,11.29,0,0,0-.46-3.16L16.21,5.71a1,1,0,0,0-1-.71H8.74a1,1,0,0,0-1,.71L5.46,13.45A11.29,11.29,0,0,0,5,16.61H5a4,4,0,0,0,2.81,3.82A14.43,14.43,0,0,0,12,21Z" style="fill: none; stroke: #000000; stroke-linecap: round; stroke-linejoin: round; stroke-width: 2;"></path></g></svg>